<mxfile host="app.diagrams.net" agent="Mozilla/5.0 (X11; Linux x86_64) AppleWebKit/537.36 (KHTML, like Gecko) Chrome/138.0.0.0 Safari/537.36" version="28.0.7">
  <diagram name="Página-1" id="Fukrr-wGdX8DEaM5J_3e">
    <mxGraphModel dx="1202" dy="668" grid="1" gridSize="10" guides="1" tooltips="1" connect="1" arrows="1" fold="1" page="1" pageScale="1" pageWidth="1169" pageHeight="827" math="0" shadow="0" adaptiveColors="none">
      <root>
        <mxCell id="0" />
        <mxCell id="1" parent="0" />
        <mxCell id="8KTi39Ln3MSMDI1yWOt1-68" value="" style="edgeStyle=orthogonalEdgeStyle;rounded=0;orthogonalLoop=1;jettySize=auto;html=1;" edge="1" parent="1" source="8KTi39Ln3MSMDI1yWOt1-1" target="8KTi39Ln3MSMDI1yWOt1-13">
          <mxGeometry relative="1" as="geometry" />
        </mxCell>
        <mxCell id="8KTi39Ln3MSMDI1yWOt1-1" value="Venta" style="whiteSpace=wrap;html=1;align=center;" vertex="1" parent="1">
          <mxGeometry x="450" y="602.12" width="100" height="40" as="geometry" />
        </mxCell>
        <mxCell id="8KTi39Ln3MSMDI1yWOt1-2" value="Videojuego" style="whiteSpace=wrap;html=1;align=center;fillColor=#dae8fc;strokeColor=#6c8ebf;" vertex="1" parent="1">
          <mxGeometry x="860" y="185" width="100" height="40" as="geometry" />
        </mxCell>
        <mxCell id="8KTi39Ln3MSMDI1yWOt1-3" value="Cliente" style="whiteSpace=wrap;html=1;align=center;fillColor=#dae8fc;strokeColor=#6c8ebf;" vertex="1" parent="1">
          <mxGeometry x="240" y="180" width="100" height="40" as="geometry" />
        </mxCell>
        <mxCell id="8KTi39Ln3MSMDI1yWOt1-4" value="Nombre" style="ellipse;whiteSpace=wrap;html=1;align=center;" vertex="1" parent="1">
          <mxGeometry x="240" y="90" width="100" height="40" as="geometry" />
        </mxCell>
        <mxCell id="8KTi39Ln3MSMDI1yWOt1-5" value="Apellido" style="ellipse;whiteSpace=wrap;html=1;align=center;" vertex="1" parent="1">
          <mxGeometry x="390" y="180" width="100" height="40" as="geometry" />
        </mxCell>
        <mxCell id="8KTi39Ln3MSMDI1yWOt1-6" value="Email" style="ellipse;whiteSpace=wrap;html=1;align=center;" vertex="1" parent="1">
          <mxGeometry x="240" y="270" width="100" height="40" as="geometry" />
        </mxCell>
        <mxCell id="8KTi39Ln3MSMDI1yWOt1-7" value="Plataforma" style="ellipse;whiteSpace=wrap;html=1;align=center;" vertex="1" parent="1">
          <mxGeometry x="710" y="185" width="100" height="40" as="geometry" />
        </mxCell>
        <mxCell id="8KTi39Ln3MSMDI1yWOt1-8" value="Nombre" style="ellipse;whiteSpace=wrap;html=1;align=center;" vertex="1" parent="1">
          <mxGeometry x="860" y="85" width="100" height="40" as="geometry" />
        </mxCell>
        <mxCell id="8KTi39Ln3MSMDI1yWOt1-9" value="Precio" style="ellipse;whiteSpace=wrap;html=1;align=center;" vertex="1" parent="1">
          <mxGeometry x="860" y="275" width="100" height="40" as="geometry" />
        </mxCell>
        <mxCell id="8KTi39Ln3MSMDI1yWOt1-11" value="Id" style="ellipse;whiteSpace=wrap;html=1;align=center;fontStyle=4;fillColor=#d5e8d4;strokeColor=#82b366;" vertex="1" parent="1">
          <mxGeometry x="100" y="180" width="100" height="40" as="geometry" />
        </mxCell>
        <mxCell id="8KTi39Ln3MSMDI1yWOt1-12" value="id" style="ellipse;whiteSpace=wrap;html=1;align=center;fontStyle=4;fillColor=#d5e8d4;strokeColor=#82b366;" vertex="1" parent="1">
          <mxGeometry x="1000" y="185" width="100" height="40" as="geometry" />
        </mxCell>
        <mxCell id="8KTi39Ln3MSMDI1yWOt1-13" value="Id" style="ellipse;whiteSpace=wrap;html=1;align=center;fontStyle=4;fillColor=#d5e8d4;strokeColor=#82b366;" vertex="1" parent="1">
          <mxGeometry x="450" y="499.41" width="100" height="40" as="geometry" />
        </mxCell>
        <mxCell id="8KTi39Ln3MSMDI1yWOt1-14" value="Método_de_Pago" style="ellipse;whiteSpace=wrap;html=1;align=center;" vertex="1" parent="1">
          <mxGeometry x="450" y="692.12" width="100" height="40" as="geometry" />
        </mxCell>
        <mxCell id="8KTi39Ln3MSMDI1yWOt1-16" value="" style="endArrow=none;html=1;rounded=0;" edge="1" parent="1" source="8KTi39Ln3MSMDI1yWOt1-9" target="8KTi39Ln3MSMDI1yWOt1-2">
          <mxGeometry width="50" height="50" relative="1" as="geometry">
            <mxPoint x="1100" y="345" as="sourcePoint" />
            <mxPoint x="1150" y="295" as="targetPoint" />
          </mxGeometry>
        </mxCell>
        <mxCell id="8KTi39Ln3MSMDI1yWOt1-17" value="" style="endArrow=none;html=1;rounded=0;" edge="1" parent="1" source="8KTi39Ln3MSMDI1yWOt1-12" target="8KTi39Ln3MSMDI1yWOt1-2">
          <mxGeometry width="50" height="50" relative="1" as="geometry">
            <mxPoint x="1080" y="375" as="sourcePoint" />
            <mxPoint x="1080" y="325" as="targetPoint" />
          </mxGeometry>
        </mxCell>
        <mxCell id="8KTi39Ln3MSMDI1yWOt1-18" value="" style="endArrow=none;html=1;rounded=0;" edge="1" parent="1" source="8KTi39Ln3MSMDI1yWOt1-2" target="8KTi39Ln3MSMDI1yWOt1-8">
          <mxGeometry width="50" height="50" relative="1" as="geometry">
            <mxPoint x="910" y="175" as="sourcePoint" />
            <mxPoint x="910" y="125" as="targetPoint" />
          </mxGeometry>
        </mxCell>
        <mxCell id="8KTi39Ln3MSMDI1yWOt1-19" value="" style="endArrow=none;html=1;rounded=0;" edge="1" parent="1" source="8KTi39Ln3MSMDI1yWOt1-2" target="8KTi39Ln3MSMDI1yWOt1-7">
          <mxGeometry width="50" height="50" relative="1" as="geometry">
            <mxPoint x="810" y="245" as="sourcePoint" />
            <mxPoint x="810" y="195" as="targetPoint" />
          </mxGeometry>
        </mxCell>
        <mxCell id="8KTi39Ln3MSMDI1yWOt1-20" value="" style="endArrow=none;html=1;rounded=0;" edge="1" parent="1" source="8KTi39Ln3MSMDI1yWOt1-3" target="8KTi39Ln3MSMDI1yWOt1-4">
          <mxGeometry width="50" height="50" relative="1" as="geometry">
            <mxPoint x="310" y="200" as="sourcePoint" />
            <mxPoint x="310" y="150" as="targetPoint" />
          </mxGeometry>
        </mxCell>
        <mxCell id="8KTi39Ln3MSMDI1yWOt1-21" value="" style="endArrow=none;html=1;rounded=0;" edge="1" parent="1" source="8KTi39Ln3MSMDI1yWOt1-3" target="8KTi39Ln3MSMDI1yWOt1-5">
          <mxGeometry width="50" height="50" relative="1" as="geometry">
            <mxPoint x="370" y="260" as="sourcePoint" />
            <mxPoint x="370" y="210" as="targetPoint" />
          </mxGeometry>
        </mxCell>
        <mxCell id="8KTi39Ln3MSMDI1yWOt1-22" value="" style="endArrow=none;html=1;rounded=0;" edge="1" parent="1" source="8KTi39Ln3MSMDI1yWOt1-3" target="8KTi39Ln3MSMDI1yWOt1-11">
          <mxGeometry width="50" height="50" relative="1" as="geometry">
            <mxPoint x="230" y="300" as="sourcePoint" />
            <mxPoint x="230" y="250" as="targetPoint" />
          </mxGeometry>
        </mxCell>
        <mxCell id="8KTi39Ln3MSMDI1yWOt1-23" value="" style="endArrow=none;html=1;rounded=0;" edge="1" parent="1" source="8KTi39Ln3MSMDI1yWOt1-6" target="8KTi39Ln3MSMDI1yWOt1-3">
          <mxGeometry width="50" height="50" relative="1" as="geometry">
            <mxPoint x="300" y="340" as="sourcePoint" />
            <mxPoint x="300" y="290" as="targetPoint" />
          </mxGeometry>
        </mxCell>
        <mxCell id="8KTi39Ln3MSMDI1yWOt1-24" value="" style="endArrow=none;html=1;rounded=0;" edge="1" parent="1" source="8KTi39Ln3MSMDI1yWOt1-1" target="8KTi39Ln3MSMDI1yWOt1-13">
          <mxGeometry width="50" height="50" relative="1" as="geometry">
            <mxPoint x="495" y="622.12" as="sourcePoint" />
            <mxPoint x="500" y="556.12" as="targetPoint" />
          </mxGeometry>
        </mxCell>
        <mxCell id="8KTi39Ln3MSMDI1yWOt1-28" value="" style="endArrow=none;html=1;rounded=0;" edge="1" parent="1" source="8KTi39Ln3MSMDI1yWOt1-14" target="8KTi39Ln3MSMDI1yWOt1-1">
          <mxGeometry width="50" height="50" relative="1" as="geometry">
            <mxPoint x="525" y="742.12" as="sourcePoint" />
            <mxPoint x="525" y="692.12" as="targetPoint" />
          </mxGeometry>
        </mxCell>
        <mxCell id="8KTi39Ln3MSMDI1yWOt1-29" value="Fecha_Hora" style="ellipse;whiteSpace=wrap;html=1;align=center;" vertex="1" parent="1">
          <mxGeometry x="600" y="642.12" width="100" height="40" as="geometry" />
        </mxCell>
        <mxCell id="8KTi39Ln3MSMDI1yWOt1-30" value="" style="endArrow=none;html=1;rounded=0;" edge="1" parent="1" source="8KTi39Ln3MSMDI1yWOt1-29" target="8KTi39Ln3MSMDI1yWOt1-1">
          <mxGeometry width="50" height="50" relative="1" as="geometry">
            <mxPoint x="425" y="712.12" as="sourcePoint" />
            <mxPoint x="475" y="662.12" as="targetPoint" />
          </mxGeometry>
        </mxCell>
        <mxCell id="8KTi39Ln3MSMDI1yWOt1-34" style="rounded=0;orthogonalLoop=1;jettySize=auto;html=1;" edge="1" parent="1" source="8KTi39Ln3MSMDI1yWOt1-31" target="8KTi39Ln3MSMDI1yWOt1-3">
          <mxGeometry relative="1" as="geometry" />
        </mxCell>
        <mxCell id="8KTi39Ln3MSMDI1yWOt1-38" value="1" style="edgeLabel;html=1;align=center;verticalAlign=middle;resizable=0;points=[];" vertex="1" connectable="0" parent="8KTi39Ln3MSMDI1yWOt1-34">
          <mxGeometry x="0.455" relative="1" as="geometry">
            <mxPoint as="offset" />
          </mxGeometry>
        </mxCell>
        <mxCell id="8KTi39Ln3MSMDI1yWOt1-35" style="rounded=0;orthogonalLoop=1;jettySize=auto;html=1;" edge="1" parent="1" source="8KTi39Ln3MSMDI1yWOt1-31" target="8KTi39Ln3MSMDI1yWOt1-1">
          <mxGeometry relative="1" as="geometry">
            <Array as="points">
              <mxPoint x="420" y="490" />
            </Array>
          </mxGeometry>
        </mxCell>
        <mxCell id="8KTi39Ln3MSMDI1yWOt1-39" value="N" style="edgeLabel;html=1;align=center;verticalAlign=middle;resizable=0;points=[];" vertex="1" connectable="0" parent="8KTi39Ln3MSMDI1yWOt1-35">
          <mxGeometry x="-0.0298" y="-2" relative="1" as="geometry">
            <mxPoint as="offset" />
          </mxGeometry>
        </mxCell>
        <mxCell id="8KTi39Ln3MSMDI1yWOt1-31" value="Realiza" style="shape=rhombus;perimeter=rhombusPerimeter;whiteSpace=wrap;html=1;align=center;fillColor=#e1d5e7;strokeColor=#9673a6;" vertex="1" parent="1">
          <mxGeometry x="410" y="290" width="120" height="60" as="geometry" />
        </mxCell>
        <mxCell id="8KTi39Ln3MSMDI1yWOt1-36" style="rounded=0;orthogonalLoop=1;jettySize=auto;html=1;" edge="1" parent="1" source="8KTi39Ln3MSMDI1yWOt1-32" target="8KTi39Ln3MSMDI1yWOt1-2">
          <mxGeometry relative="1" as="geometry" />
        </mxCell>
        <mxCell id="8KTi39Ln3MSMDI1yWOt1-59" value="1" style="edgeLabel;html=1;align=center;verticalAlign=middle;resizable=0;points=[];" vertex="1" connectable="0" parent="8KTi39Ln3MSMDI1yWOt1-36">
          <mxGeometry x="-0.0254" y="-3" relative="1" as="geometry">
            <mxPoint as="offset" />
          </mxGeometry>
        </mxCell>
        <mxCell id="8KTi39Ln3MSMDI1yWOt1-57" style="rounded=0;orthogonalLoop=1;jettySize=auto;html=1;" edge="1" parent="1" source="8KTi39Ln3MSMDI1yWOt1-32" target="8KTi39Ln3MSMDI1yWOt1-45">
          <mxGeometry relative="1" as="geometry">
            <Array as="points">
              <mxPoint x="720" y="420" />
            </Array>
          </mxGeometry>
        </mxCell>
        <mxCell id="8KTi39Ln3MSMDI1yWOt1-60" value="N" style="edgeLabel;html=1;align=center;verticalAlign=middle;resizable=0;points=[];" vertex="1" connectable="0" parent="8KTi39Ln3MSMDI1yWOt1-57">
          <mxGeometry x="0.3431" y="-2" relative="1" as="geometry">
            <mxPoint as="offset" />
          </mxGeometry>
        </mxCell>
        <mxCell id="8KTi39Ln3MSMDI1yWOt1-32" value="Incluye" style="shape=rhombus;perimeter=rhombusPerimeter;whiteSpace=wrap;html=1;align=center;fillColor=#e1d5e7;strokeColor=#9673a6;" vertex="1" parent="1">
          <mxGeometry x="680" y="290" width="120" height="60" as="geometry" />
        </mxCell>
        <mxCell id="8KTi39Ln3MSMDI1yWOt1-43" value="Monto_Total" style="ellipse;whiteSpace=wrap;html=1;align=center;" vertex="1" parent="1">
          <mxGeometry x="300" y="629.41" width="100" height="40" as="geometry" />
        </mxCell>
        <mxCell id="8KTi39Ln3MSMDI1yWOt1-44" value="" style="endArrow=none;html=1;rounded=0;" edge="1" parent="1" source="8KTi39Ln3MSMDI1yWOt1-43" target="8KTi39Ln3MSMDI1yWOt1-1">
          <mxGeometry width="50" height="50" relative="1" as="geometry">
            <mxPoint x="470" y="509.41" as="sourcePoint" />
            <mxPoint x="520" y="459.41" as="targetPoint" />
          </mxGeometry>
        </mxCell>
        <mxCell id="8KTi39Ln3MSMDI1yWOt1-45" value="Detalle_Venta" style="whiteSpace=wrap;html=1;align=center;" vertex="1" parent="1">
          <mxGeometry x="750" y="474" width="100" height="40" as="geometry" />
        </mxCell>
        <mxCell id="8KTi39Ln3MSMDI1yWOt1-48" value="Id_venta" style="ellipse;whiteSpace=wrap;html=1;align=center;fontStyle=4;fillColor=#d5e8d4;strokeColor=#82b366;" vertex="1" parent="1">
          <mxGeometry x="750" y="400" width="100" height="40" as="geometry" />
        </mxCell>
        <mxCell id="8KTi39Ln3MSMDI1yWOt1-49" value="Id_Videojuego" style="ellipse;whiteSpace=wrap;html=1;align=center;fontStyle=4;fillColor=#d5e8d4;strokeColor=#82b366;" vertex="1" parent="1">
          <mxGeometry x="890" y="474" width="100" height="40" as="geometry" />
        </mxCell>
        <mxCell id="8KTi39Ln3MSMDI1yWOt1-50" value="Cantidad&amp;nbsp;" style="ellipse;whiteSpace=wrap;html=1;align=center;" vertex="1" parent="1">
          <mxGeometry x="750" y="539.41" width="100" height="40" as="geometry" />
        </mxCell>
        <mxCell id="8KTi39Ln3MSMDI1yWOt1-51" value="Precio_unitario" style="ellipse;whiteSpace=wrap;html=1;align=center;" vertex="1" parent="1">
          <mxGeometry x="620" y="474" width="100" height="40" as="geometry" />
        </mxCell>
        <mxCell id="8KTi39Ln3MSMDI1yWOt1-53" value="" style="endArrow=none;html=1;rounded=0;" edge="1" parent="1" source="8KTi39Ln3MSMDI1yWOt1-45" target="8KTi39Ln3MSMDI1yWOt1-48">
          <mxGeometry width="50" height="50" relative="1" as="geometry">
            <mxPoint x="560" y="490" as="sourcePoint" />
            <mxPoint x="610" y="440" as="targetPoint" />
          </mxGeometry>
        </mxCell>
        <mxCell id="8KTi39Ln3MSMDI1yWOt1-54" value="" style="endArrow=none;html=1;rounded=0;" edge="1" parent="1" source="8KTi39Ln3MSMDI1yWOt1-45" target="8KTi39Ln3MSMDI1yWOt1-49">
          <mxGeometry width="50" height="50" relative="1" as="geometry">
            <mxPoint x="840" y="544" as="sourcePoint" />
            <mxPoint x="840" y="510" as="targetPoint" />
          </mxGeometry>
        </mxCell>
        <mxCell id="8KTi39Ln3MSMDI1yWOt1-55" value="" style="endArrow=none;html=1;rounded=0;" edge="1" parent="1" source="8KTi39Ln3MSMDI1yWOt1-50" target="8KTi39Ln3MSMDI1yWOt1-45">
          <mxGeometry width="50" height="50" relative="1" as="geometry">
            <mxPoint x="840" y="574" as="sourcePoint" />
            <mxPoint x="840" y="540" as="targetPoint" />
          </mxGeometry>
        </mxCell>
        <mxCell id="8KTi39Ln3MSMDI1yWOt1-56" value="" style="endArrow=none;html=1;rounded=0;" edge="1" parent="1" source="8KTi39Ln3MSMDI1yWOt1-51" target="8KTi39Ln3MSMDI1yWOt1-45">
          <mxGeometry width="50" height="50" relative="1" as="geometry">
            <mxPoint x="690" y="544" as="sourcePoint" />
            <mxPoint x="690" y="510" as="targetPoint" />
          </mxGeometry>
        </mxCell>
        <mxCell id="8KTi39Ln3MSMDI1yWOt1-61" style="rounded=0;orthogonalLoop=1;jettySize=auto;html=1;" edge="1" parent="1" source="8KTi39Ln3MSMDI1yWOt1-58" target="8KTi39Ln3MSMDI1yWOt1-1">
          <mxGeometry relative="1" as="geometry" />
        </mxCell>
        <mxCell id="8KTi39Ln3MSMDI1yWOt1-62" value="1" style="edgeLabel;html=1;align=center;verticalAlign=middle;resizable=0;points=[];" vertex="1" connectable="0" parent="8KTi39Ln3MSMDI1yWOt1-61">
          <mxGeometry x="0.3031" y="1" relative="1" as="geometry">
            <mxPoint as="offset" />
          </mxGeometry>
        </mxCell>
        <mxCell id="8KTi39Ln3MSMDI1yWOt1-63" style="rounded=0;orthogonalLoop=1;jettySize=auto;html=1;" edge="1" parent="1" source="8KTi39Ln3MSMDI1yWOt1-58" target="8KTi39Ln3MSMDI1yWOt1-45">
          <mxGeometry relative="1" as="geometry" />
        </mxCell>
        <mxCell id="8KTi39Ln3MSMDI1yWOt1-64" value="N" style="edgeLabel;html=1;align=center;verticalAlign=middle;resizable=0;points=[];" vertex="1" connectable="0" parent="8KTi39Ln3MSMDI1yWOt1-63">
          <mxGeometry x="-0.0289" y="-1" relative="1" as="geometry">
            <mxPoint as="offset" />
          </mxGeometry>
        </mxCell>
        <mxCell id="8KTi39Ln3MSMDI1yWOt1-58" value="Tiene" style="shape=rhombus;perimeter=rhombusPerimeter;whiteSpace=wrap;html=1;align=center;fillColor=#e1d5e7;strokeColor=#9673a6;" vertex="1" parent="1">
          <mxGeometry x="570" y="529.41" width="120" height="60" as="geometry" />
        </mxCell>
        <mxCell id="8KTi39Ln3MSMDI1yWOt1-65" value="Id_cliente" style="ellipse;whiteSpace=wrap;html=1;align=center;fillColor=#ffe6cc;strokeColor=#d79b00;" vertex="1" parent="1">
          <mxGeometry x="290" y="529.41" width="100" height="40" as="geometry" />
        </mxCell>
        <mxCell id="8KTi39Ln3MSMDI1yWOt1-66" value="" style="endArrow=none;html=1;rounded=0;" edge="1" parent="1" source="8KTi39Ln3MSMDI1yWOt1-1" target="8KTi39Ln3MSMDI1yWOt1-65">
          <mxGeometry width="50" height="50" relative="1" as="geometry">
            <mxPoint x="560" y="610" as="sourcePoint" />
            <mxPoint x="610" y="560" as="targetPoint" />
          </mxGeometry>
        </mxCell>
      </root>
    </mxGraphModel>
  </diagram>
</mxfile>
